<?xml version="1.0" encoding="UTF-8"?>
<svg xmlns="http://www.w3.org/2000/svg"
     xmlns:xlink="http://www.w3.org/1999/xlink"
     xmlns:gadfly="http://www.gadflyjl.org/ns"
     version="1.2"
     width="152.4mm" height="101.6mm" viewBox="0 0 152.4 101.6"
     stroke="none"
     fill="#000000"
     stroke-width="0.3"
     font-size="3.88"
>
<defs>
  <marker id="arrow" markerWidth="15" markerHeight="7" refX="5" refY="3.5" orient="auto" markerUnits="strokeWidth">
    <path d="M0,0 L15,3.5 L0,7 z" stroke="context-stroke" fill="context-stroke"/>
  </marker>
</defs>
<g class="plotroot xscalable yscalable" id="img-6f2a9ee2-1">
  <g font-size="3.88" font-family="'PT Sans','Helvetica Neue','Helvetica',sans-serif" fill="#564A55" stroke="#000000" stroke-opacity="0.000" id="img-6f2a9ee2-2">
    <g transform="translate(83.52,89.99)">
      <g class="primitive">
        <text text-anchor="middle" dy="0.6em">Strike in forward units</text>
      </g>
    </g>
  </g>
  <g class="guide xlabels" font-size="2.82" font-family="'PT Sans Caption','Helvetica Neue','Helvetica',sans-serif" fill="#6C606B" id="img-6f2a9ee2-3">
    <g transform="translate(21.63,83.32)">
      <g class="primitive">
        <text text-anchor="middle" dy="0.6em">-1</text>
      </g>
    </g>
    <g transform="translate(46.39,83.32)">
      <g class="primitive">
        <text text-anchor="middle" dy="0.6em">0</text>
      </g>
    </g>
    <g transform="translate(71.14,83.32)">
      <g class="primitive">
        <text text-anchor="middle" dy="0.6em">1</text>
      </g>
    </g>
    <g transform="translate(95.89,83.32)">
      <g class="primitive">
        <text text-anchor="middle" dy="0.6em">2</text>
      </g>
    </g>
    <g transform="translate(120.65,83.32)">
      <g class="primitive">
        <text text-anchor="middle" dy="0.6em">3</text>
      </g>
    </g>
    <g transform="translate(145.4,83.32)">
      <g class="primitive">
        <text text-anchor="middle" dy="0.6em">4</text>
      </g>
    </g>
  </g>
  <g clip-path="url(#img-6f2a9ee2-4)">
    <g id="img-6f2a9ee2-5">
      <g pointer-events="visible" fill="#000000" fill-opacity="0.000" stroke="#000000" stroke-opacity="0.000" class="guide background" id="img-6f2a9ee2-6">
        <g transform="translate(83.52,43.66)" id="img-6f2a9ee2-7">
          <path d="M-63.88,-38.66 L 63.88 -38.66 63.88 38.66 -63.88 38.66 z" class="primitive"/>
        </g>
      </g>
      <g class="guide ygridlines xfixed" stroke-dasharray="0.5,0.5" stroke-width="0.2" stroke="#D0D0E0" id="img-6f2a9ee2-8">
        <g transform="translate(83.52,80.32)" id="img-6f2a9ee2-9">
          <path fill="none" d="M-63.88,0 L 63.88 0" class="primitive"/>
        </g>
        <g transform="translate(83.52,43.66)" id="img-6f2a9ee2-10">
          <path fill="none" d="M-63.88,0 L 63.88 0" class="primitive"/>
        </g>
        <g transform="translate(83.52,7)" id="img-6f2a9ee2-11">
          <path fill="none" d="M-63.88,0 L 63.88 0" class="primitive"/>
        </g>
      </g>
      <g class="guide xgridlines yfixed" stroke-dasharray="0.5,0.5" stroke-width="0.2" stroke="#D0D0E0" id="img-6f2a9ee2-12">
        <g transform="translate(21.63,43.66)" id="img-6f2a9ee2-13">
          <path fill="none" d="M0,-38.66 L 0 38.66" class="primitive"/>
        </g>
        <g transform="translate(46.39,43.66)" id="img-6f2a9ee2-14">
          <path fill="none" d="M0,-38.66 L 0 38.66" class="primitive"/>
        </g>
        <g transform="translate(71.14,43.66)" id="img-6f2a9ee2-15">
          <path fill="none" d="M0,-38.66 L 0 38.66" class="primitive"/>
        </g>
        <g transform="translate(95.89,43.66)" id="img-6f2a9ee2-16">
          <path fill="none" d="M0,-38.66 L 0 38.66" class="primitive"/>
        </g>
        <g transform="translate(120.65,43.66)" id="img-6f2a9ee2-17">
          <path fill="none" d="M0,-38.66 L 0 38.66" class="primitive"/>
        </g>
        <g transform="translate(145.4,43.66)" id="img-6f2a9ee2-18">
          <path fill="none" d="M0,-38.66 L 0 38.66" class="primitive"/>
        </g>
      </g>
      <g class="plotpanel" id="img-6f2a9ee2-19">
        <metadata>
          <boundingbox value="19.63166666666669mm 5.0mm 127.76833333333332mm 77.315mm"/>
          <unitbox value="-1.0807961110138566 102.72795471595171 5.161592222027713 -105.45590943190344"/>
        </metadata>
        <g stroke-width="0.3" fill="#000000" fill-opacity="0.000" class="geometry" id="img-6f2a9ee2-20">
          <g class="color_LCHab{Float32}(70.0f0,60.0f0,240.0f0)" stroke-dasharray="none" stroke="#00BFFF" id="img-6f2a9ee2-21">
            <g transform="translate(83.52,51.59)" id="img-6f2a9ee2-22">
              <path fill="none" d="M-61.88,24.58 L -61.76 24.54 -61.64 24.51 -61.51 24.48 -61.39 24.44 -61.27 24.39 -61.14 24.35 -61.02 24.32 -60.89 24.28 -60.77 24.24 -60.65 24.19 -60.52 24.15 -60.4 24.12 -60.28 24.08 -60.15 24.04 -60.03 23.99 -59.9 23.94 -59.78 23.9 -59.66 23.86 -59.53 23.82 -59.41 23.77 -59.29 23.72 -59.16 23.68 -59.04 23.64 -58.91 23.6 -58.79 23.54 -58.67 23.49 -58.54 23.45 -58.42 23.4 -58.29 23.36 -58.17 23.3 -58.05 23.25 -57.92 23.2 -57.8 23.16 -57.68 23.11 -57.55 23.05 -57.43 22.99 -57.3 22.94 -57.18 22.89 -57.06 22.84 -56.93 22.78 -56.81 22.73 -56.69 22.67 -56.56 22.62 -56.44 22.56 -56.31 22.5 -56.19 22.44 -56.07 22.38 -55.94 22.33 -55.82 22.27 -55.7 22.2 -55.57 22.14 -55.45 22.08 -55.32 22.02 -55.2 21.95 -55.08 21.89 -54.95 21.82 -54.83 21.76 -54.71 21.7 -54.58 21.62 -54.46 21.56 -54.33 21.49 -54.21 21.42 -54.09 21.35 -53.96 21.28 -53.84 21.21 -53.72 21.14 -53.59 21.06 -53.47 20.99 -53.34 20.91 -53.22 20.84 -53.1 20.76 -52.97 20.69 -52.85 20.6 -52.73 20.53 -52.6 20.45 -52.48 20.37 -52.35 20.28 -52.23 20.2 -52.11 20.12 -51.98 20.03 -51.86 19.95 -51.74 19.86 -51.61 19.77 -51.49 19.68 -51.36 19.59 -51.24 19.5 -51.12 19.41 -50.99 19.31 -50.87 19.22 -50.75 19.12 -50.62 19.02 -50.5 18.93 -50.37 18.83 -50.25 18.73 -50.13 18.62 -50 18.52 -49.88 18.42 -49.75 18.31 -49.63 18.2 -49.51 18.1 -49.38 17.99 -49.26 17.88 -49.14 17.76 -49.01 17.65 -48.89 17.53 -48.76 17.41 -48.64 17.3 -48.52 17.18 -48.39 17.05 -48.27 16.93 -48.15 16.81 -48.02 16.68 -47.9 16.55 -47.77 16.42 -47.65 16.29 -47.53 16.15 -47.4 16.02 -47.28 15.88 -47.16 15.74 -47.03 15.6 -46.91 15.45 -46.78 15.31 -46.66 15.16 -46.54 15.01 -46.41 14.85 -46.29 14.7 -46.17 14.54 -46.04 14.38 -45.92 14.22 -45.79 14.06 -45.67 13.89 -45.55 13.72 -45.42 13.54 -45.3 13.37 -45.18 13.19 -45.05 13.01 -44.93 12.83 -44.8 12.64 -44.68 12.45 -44.56 12.25 -44.43 12.06 -44.31 11.86 -44.19 11.65 -44.06 11.44 -43.94 11.23 -43.81 11.02 -43.69 10.79 -43.57 10.57 -43.44 10.34 -43.32 10.11 -43.2 9.87 -43.07 9.63 -42.95 9.38 -42.82 9.13 -42.7 8.87 -42.58 8.61 -42.45 8.34 -42.33 8.06 -42.21 7.78 -42.08 7.49 -41.96 7.19 -41.83 6.88 -41.71 6.58 -41.59 6.27 -41.46 5.92 -41.34 5.59 -41.21 5.25 -41.09 4.89 -40.97 4.51 -40.84 4.15 -40.72 3.77 -40.6 3.34 -40.47 2.93 -40.35 2.52 -40.22 2.03 -40.1 1.58 -39.98 1.12 -39.85 0.58 -39.73 0.05 -39.61 -0.47 -39.48 -1.08 -39.36 -1.7 -39.23 -2.31 -39.11 -3.01 -38.99 -3.76 -38.86 -4.49 -38.74 -5.34 -38.62 -6.29 -38.49 -7.19 -38.37 -8.33 -38.24 -9.58 -38.12 -10.82 -38 -12.53 -37.87 -14.35 -37.75 -16.49 -37.63 -20.2 -37.5 -24.99 -37.38 -30.2 -37.25 -35.14 -37.13 -36.97 -37.01 -35.5 -36.88 -32.2 -36.76 -27.6 -36.64 -23.96 -36.51 -21.47 -36.39 -19.65 -36.26 -18.53 -36.14 -17.48 -36.02 -16.74 -35.89 -16.14 -35.77 -15.57 -35.65 -15.18 -35.52 -14.81 -35.4 -14.49 -35.27 -14.26 -35.15 -14.04 -35.03 -13.85 -34.9 -13.73 -34.78 -13.6 -34.66 -13.5 -34.53 -13.44 -34.41 -13.37 -34.28 -13.33 -34.16 -13.32 -34.04 -13.31 -33.91 -13.31 -33.79 -13.34 -33.66 -13.36 -33.54 -13.39 -33.42 -13.45 -33.29 -13.5 -33.17 -13.56 -33.05 -13.64 -32.92 -13.72 -32.8 -13.8 -32.67 -13.9 -32.55 -13.99 -32.43 -14.09 -32.3 -14.2 -32.18 -14.32 -32.06 -14.43 -31.93 -14.56 -31.81 -14.68 -31.68 -14.81 -31.56 -14.95 -31.44 -15.08 -31.31 -15.22 -31.19 -15.37 -31.07 -15.52 -30.94 -15.66 -30.82 -15.82 -30.69 -15.98 -30.57 -16.13 -30.45 -16.3 -30.32 -16.46 -30.2 -16.62 -30.08 -16.8 -29.95 -16.97 -29.83 -17.13 -29.7 -17.32 -29.58 -17.5 -29.46 -17.66 -29.33 -17.86 -29.21 -18.04 -29.09 -18.21 -28.96 -18.41 -28.84 -18.59 -28.71 -18.77 -28.59 -18.97 -28.47 -19.16 -28.34 -19.34 -28.22 -19.55 -28.1 -19.74 -27.97 -19.93 -27.85 -20.14 -27.72 -20.33 -27.6 -20.52 -27.48 -20.73 -27.35 -20.93 -27.23 -21.12 -27.11 -21.34 -26.98 -21.54 -26.86 -21.73 -26.73 -21.95 -26.61 -22.15 -26.49 -22.35 -26.36 -22.57 -26.24 -22.77 -26.12 -22.97 -25.99 -23.19 -25.87 -23.39 -25.74 -23.59 -25.62 -23.82 -25.5 -24.02 -25.37 -24.22 -25.25 -24.45 -25.12 -24.65 -25 -24.85 -24.88 -25.08 -24.75 -25.28 -24.63 -25.48 -24.51 -25.71 -24.38 -25.9 -24.26 -26.11 -24.13 -26.34 -24.01 -26.53 -23.89 -26.74 -23.76 -26.96 -23.64 -27.16 -23.52 -27.37 -23.39 -27.59 -23.27 -27.78 -23.14 -27.99 -23.02 -28.21 -22.9 -28.4 -22.77 -28.61 -22.65 -28.83 -22.53 -29.02 -22.4 -29.23 -22.28 -29.44 -22.15 -29.63 -22.03 -29.84 -21.91 -30.05 -21.78 -30.24 -21.66 -30.45 -21.54 -30.65 -21.41 -30.84 -21.29 -31.05 -21.16 -31.24 -21.04 -31.43 -20.92 -31.64 -20.79 -31.82 -20.67 -32.01 -20.55 -32.22 -20.42 -32.4 -20.3 -32.58 -20.17 -32.79 -20.05 -32.96 -19.93 -33.14 -19.8 -33.34 -19.68 -33.51 -19.56 -33.7 -19.43 -33.89 -19.31 -34.05 -19.18 -34.24 -19.06 -34.42 -18.94 -34.58 -18.81 -34.76 -18.69 -34.94 -18.57 -35.1 -18.44 -35.28 -18.32 -35.44 -18.19 -35.6 -18.07 -35.77 -17.95 -35.93 -17.82 -36.08 -17.7 -36.25 -17.58 -36.4 -17.45 -36.55 -17.33 -36.72 -17.2 -36.86 -17.08 -37.01 -16.96 -37.16 -16.83 -37.3 -16.71 -37.44 -16.58 -37.59 -16.46 -37.72 -16.34 -37.86 -16.21 -38 -16.09 -38.12 -15.97 -38.26 -15.84 -38.38 -15.72 -38.5 -15.59 -38.64 -15.47 -38.75 -15.35 -38.87 -15.22 -38.99 -15.1 -39.1 -14.98 -39.21 -14.85 -39.32 -14.73 -39.42 -14.6 -39.53 -14.48 -39.63 -14.36 -39.72 -14.23 -39.83 -14.11 -39.92 -13.99 -40.01 -13.86 -40.1 -13.74 -40.18 -13.61 -40.26 -13.49 -40.35 -13.37 -40.42 -13.24 -40.5 -13.12 -40.57 -13 -40.64 -12.87 -40.71 -12.75 -40.77 -12.62 -40.83 -12.5 -40.89 -12.38 -40.95 -12.25 -40.99 -12.13 -41.05 -12.01 -41.09 -11.88 -41.13 -11.76 -41.18 -11.63 -41.21 -11.51 -41.25 -11.39 -41.28 -11.26 -41.31 -11.14 -41.33 -11.02 -41.36 -10.89 -41.38 -10.77 -41.39 -10.64 -41.41 -10.52 -41.42 -10.4 -41.43 -10.27 -41.43 -10.15 -41.43 -10.03 -41.43 -9.9 -41.42 -9.78 -41.41 -9.65 -41.41 -9.53 -41.39 -9.41 -41.37 -9.28 -41.35 -9.16 -41.33 -9.04 -41.3 -8.91 -41.27 -8.79 -41.24 -8.66 -41.2 -8.54 -41.17 -8.42 -41.12 -8.29 -41.08 -8.17 -41.03 -8.04 -40.97 -7.92 -40.92 -7.8 -40.86 -7.67 -40.8 -7.55 -40.74 -7.43 -40.67 -7.3 -40.6 -7.18 -40.53 -7.05 -40.45 -6.93 -40.37 -6.81 -40.29 -6.68 -40.2 -6.56 -40.11 -6.44 -40.02 -6.31 -39.92 -6.19 -39.83 -6.06 -39.72 -5.94 -39.61 -5.82 -39.51 -5.69 -39.4 -5.57 -39.28 -5.45 -39.18 -5.32 -39.05 -5.2 -38.93 -5.07 -38.81 -4.95 -38.67 -4.83 -38.55 -4.7 -38.41 -4.58 -38.27 -4.46 -38.14 -4.33 -37.99 -4.21 -37.84 -4.08 -37.7 -3.96 -37.54 -3.84 -37.39 -3.71 -37.24 -3.59 -37.07 -3.47 -36.92 -3.34 -36.76 -3.22 -36.58 -3.09 -36.42 -2.97 -36.24 -2.85 -36.06 -2.72 -35.9 -2.6 -35.71 -2.48 -35.53 -2.35 -35.35 -2.23 -35.15 -2.1 -34.97 -1.98 -34.78 -1.86 -34.57 -1.73 -34.39 -1.61 -34.19 -1.49 -33.98 -1.36 -33.79 -1.24 -33.57 -1.11 -33.36 -0.99 -33.16 -0.87 -32.94 -0.74 -32.73 -0.62 -32.52 -0.5 -32.29 -0.37 -32.08 -0.25 -31.85 -0.12 -31.62 0 -31.41 0.12 -31.17 0.25 -30.94 0.37 -30.72 0.5 -30.47 0.62 -30.24 0.74 -30.01 0.87 -29.75 0.99 -29.53 1.11 -29.29 1.24 -29.03 1.36 -28.8 1.49 -28.54 1.61 -28.29 1.73 -28.06 1.86 -27.79 1.98 -27.54 2.1 -27.3 2.23 -27.02 2.35 -26.77 2.48 -26.52 2.6 -26.25 2.72 -26 2.85 -25.74 2.97 -25.46 3.09 -25.22 3.22 -24.94 3.34 -24.67 3.47 -24.42 3.59 -24.13 3.71 -23.87 3.84 -23.61 3.96 -23.32 4.08 -23.06 4.21 -22.8 4.33 -22.5 4.46 -22.25 4.58 -21.97 4.7 -21.68 4.83 -21.42 4.95 -21.14 5.07 -20.85 5.2 -20.6 5.32 -20.3 5.45 -20.02 5.57 -19.76 5.69 -19.46 5.82 -19.19 5.94 -18.92 6.06 -18.62 6.19 -18.35 6.31 -18.08 6.44 -17.78 6.56 -17.51 6.68 -17.23 6.81 -16.93 6.93 -16.67 7.05 -16.38 7.18 -16.09 7.3 -15.83 7.43 -15.53 7.55 -15.25 7.67 -14.99 7.8 -14.69 7.92 -14.41 8.04 -14.14 8.17 -13.84 8.29 -13.57 8.42 -13.3 8.54 -13 8.66 -12.73 8.79 -12.46 8.91 -12.16 9.04 -11.9 9.16 -11.62 9.28 -11.32 9.41 -11.06 9.53 -10.79 9.65 -10.49 9.78 -10.24 9.9 -9.96 10.03 -9.67 10.15 -9.41 10.27 -9.13 10.4 -8.85 10.52 -8.6 10.64 -8.31 10.77 -8.04 10.89 -7.78 11.02 -7.5 11.14 -7.23 11.26 -6.98 11.39 -6.69 11.51 -6.43 11.63 -6.18 11.76 -5.9 11.88 -5.63 12.01 -5.39 12.13 -5.11 12.25 -4.85 12.38 -4.6 12.5 -4.33 12.62 -4.07 12.75 -3.83 12.87 -3.55 13 -3.3 13.12 -3.06 13.24 -2.79 13.37 -2.54 13.49 -2.31 13.61 -2.04 13.74 -1.79 13.86 -1.56 13.99 -1.29 14.11 -1.05 14.23 -0.82 14.36 -0.56 14.48 -0.32 14.6 -0.09 14.73 0.16 14.85 0.4 14.98 0.62 15.1 0.88 15.22 1.11 15.35 1.33 15.47 1.58 15.59 1.81 15.72 2.03 15.84 2.27 15.97 2.5 16.09 2.71 16.21 2.95 16.34 3.17 16.46 3.38 16.58 3.61 16.71 3.84 16.83 4.05 16.96 4.27 17.08 4.49 17.2 4.7 17.33 4.91 17.45 5.13 17.58 5.33 17.7 5.54 17.82 5.76 17.95 5.96 18.07 6.16 18.19 6.38 18.32 6.58 18.44 6.77 18.57 6.99 18.69 7.18 18.81 7.37 18.94 7.58 19.06 7.77 19.18 7.96 19.31 8.16 19.43 8.35 19.56 8.53 19.68 8.72 19.8 8.92 19.93 9.1 20.05 9.28 20.17 9.47 20.3 9.65 20.42 9.82 20.55 10.01 20.67 10.19 20.79 10.36 20.92 10.54 21.04 10.71 21.16 10.88 21.29 11.06 21.41 11.23 21.54 11.39 21.66 11.56 21.78 11.73 21.91 11.89 22.03 12.05 22.15 12.23 22.28 12.38 22.4 12.54 22.53 12.7 22.65 12.86 22.77 13.01 22.9 13.17 23.02 13.32 23.14 13.47 23.27 13.62 23.39 13.78 23.52 13.92 23.64 14.07 23.76 14.22 23.89 14.36 24.01 14.5 24.13 14.65 24.26 14.79 24.38 14.93 24.51 15.07 24.63 15.21 24.75 15.34 24.88 15.47 25 15.62 25.12 15.75 25.25 15.88 25.37 16.01 25.5 16.14 25.62 16.26 25.74 16.39 25.87 16.52 25.99 16.64 26.12 16.77 26.24 16.89 26.36 17.01 26.49 17.13 26.61 17.25 26.73 17.37 26.86 17.49 26.98 17.6 27.11 17.72 27.23 17.83 27.35 17.95 27.48 18.06 27.6 18.17 27.72 18.28 27.85 18.39 27.97 18.5 28.1 18.6 28.22 18.71 28.34 18.81 28.47 18.92 28.59 19.02 28.71 19.12 28.84 19.23 28.96 19.33 29.09 19.42 29.21 19.52 29.33 19.62 29.46 19.72 29.58 19.81 29.7 19.91 29.83 20 29.95 20.09 30.08 20.18 30.2 20.27 30.32 20.36 30.45 20.45 30.57 20.54 30.69 20.63 30.82 20.71 30.94 20.8 31.07 20.89 31.19 20.97 31.31 21.05 31.44 21.13 31.56 21.22 31.68 21.3 31.81 21.38 31.93 21.45 32.06 21.53 32.18 21.61 32.3 21.69 32.43 21.76 32.55 21.84 32.67 21.91 32.8 21.99 32.92 22.06 33.05 22.13 33.17 22.2 33.29 22.27 33.42 22.34 33.54 22.41 33.66 22.48 33.79 22.55 33.91 22.62 34.04 22.68 34.16 22.75 34.28 22.81 34.41 22.88 34.53 22.94 34.66 23 34.78 23.07 34.9 23.13 35.03 23.19 35.15 23.25 35.27 23.31 35.4 23.37 35.52 23.43 35.65 23.48 35.77 23.54 35.89 23.6 36.02 23.65 36.14 23.71 36.26 23.76 36.39 23.82 36.51 23.87 36.64 23.93 36.76 23.98 36.88 24.03 37.01 24.08 37.13 24.13 37.25 24.18 37.38 24.23 37.5 24.28 37.63 24.33 37.75 24.38 37.87 24.43 38 24.48 38.12 24.52 38.24 24.57 38.37 24.61 38.49 24.66 38.62 24.7 38.74 24.75 38.86 24.79 38.99 24.84 39.11 24.88 39.23 24.92 39.36 24.96 39.48 25 39.61 25.05 39.73 25.09 39.85 25.13 39.98 25.17 40.1 25.21 40.22 25.24 40.35 25.28 40.47 25.32 40.6 25.36 40.72 25.4 40.84 25.43 40.97 25.47 41.09 25.51 41.21 25.54 41.34 25.58 41.46 25.61 41.59 25.64 41.71 25.68 41.83 25.71 41.96 25.75 42.08 25.78 42.21 25.81 42.33 25.84 42.45 25.88 42.58 25.91 42.7 25.94 42.82 25.97 42.95 26 43.07 26.03 43.2 26.06 43.32 26.09 43.44 26.12 43.57 26.15 43.69 26.18 43.81 26.2 43.94 26.23 44.06 26.26 44.19 26.29 44.31 26.31 44.43 26.34 44.56 26.37 44.68 26.39 44.8 26.42 44.93 26.44 45.05 26.47 45.18 26.49 45.3 26.52 45.42 26.54 45.55 26.57 45.67 26.59 45.79 26.62 45.92 26.64 46.04 26.66 46.17 26.68 46.29 26.71 46.41 26.73 46.54 26.75 46.66 26.77 46.78 26.79 46.91 26.82 47.03 26.84 47.16 26.86 47.28 26.88 47.4 26.9 47.53 26.92 47.65 26.94 47.77 26.96 47.9 26.98 48.02 27 48.15 27.02 48.27 27.04 48.39 27.05 48.52 27.07 48.64 27.09 48.76 27.11 48.89 27.13 49.01 27.14 49.14 27.16 49.26 27.18 49.38 27.2 49.51 27.21 49.63 27.23 49.75 27.25 49.88 27.26 50 27.28 50.13 27.29 50.25 27.31 50.37 27.33 50.5 27.34 50.62 27.36 50.75 27.37 50.87 27.39 50.99 27.4 51.12 27.42 51.24 27.43 51.36 27.44 51.49 27.46 51.61 27.47 51.74 27.49 51.86 27.5 51.98 27.51 52.11 27.53 52.23 27.54 52.35 27.55 52.48 27.56 52.6 27.58 52.73 27.59 52.85 27.6 52.97 27.62 53.1 27.63 53.22 27.64 53.34 27.65 53.47 27.66 53.59 27.67 53.72 27.69 53.84 27.7 53.96 27.71 54.09 27.72 54.21 27.73 54.33 27.74 54.46 27.75 54.58 27.76 54.71 27.77 54.83 27.78 54.95 27.79 55.08 27.81 55.2 27.81 55.32 27.82 55.45 27.83 55.57 27.84 55.7 27.85 55.82 27.86 55.94 27.87 56.07 27.88 56.19 27.89 56.31 27.9 56.44 27.91 56.56 27.92 56.69 27.93 56.81 27.93 56.93 27.94 57.06 27.95 57.18 27.96 57.3 27.97 57.43 27.98 57.55 27.99 57.68 27.99 57.8 28 57.92 28.01 58.05 28.02 58.17 28.03 58.29 28.03 58.42 28.04 58.54 28.05 58.67 28.05 58.79 28.06 58.91 28.07 59.04 28.08 59.16 28.08 59.29 28.09 59.41 28.1 59.53 28.1 59.66 28.11 59.78 28.12 59.9 28.12 60.03 28.13 60.15 28.14 60.28 28.14 60.4 28.15 60.52 28.15 60.65 28.16 60.77 28.17 60.89 28.17 61.02 28.18 61.14 28.18 61.27 28.19 61.39 28.2 61.51 28.2 61.64 28.21 61.76 28.21 61.88 28.22" class="primitive"/>
            </g>
          </g>
        </g>
      </g>
    </g>
  </g>
  <g class="guide ylabels" font-size="2.82" font-family="'PT Sans Caption','Helvetica Neue','Helvetica',sans-serif" fill="#6C606B" id="img-6f2a9ee2-23">
    <g transform="translate(18.63,80.32)" id="img-6f2a9ee2-24">
      <g class="primitive">
        <text text-anchor="end" dy="0.35em">0</text>
      </g>
    </g>
    <g transform="translate(18.63,43.66)" id="img-6f2a9ee2-25">
      <g class="primitive">
        <text text-anchor="end" dy="0.35em">50</text>
      </g>
    </g>
    <g transform="translate(18.63,7)" id="img-6f2a9ee2-26">
      <g class="primitive">
        <text text-anchor="end" dy="0.35em">100</text>
      </g>
    </g>
  </g>
  <g font-size="3.88" font-family="'PT Sans','Helvetica Neue','Helvetica',sans-serif" fill="#564A55" stroke="#000000" stroke-opacity="0.000" id="img-6f2a9ee2-27">
    <g transform="translate(8.81,41.66)" id="img-6f2a9ee2-28">
      <g class="primitive">
        <text text-anchor="middle" dy="0.35em" transform="rotate(-90,0, 2)">Implied density</text>
      </g>
    </g>
  </g>
</g>
<defs>
  <clipPath id="img-6f2a9ee2-4">
    <path d="M19.63,5 L 147.4 5 147.4 82.32 19.63 82.32" />
  </clipPath>
</defs>
</svg>
