<?xml version="1.0" encoding="UTF-8"?>
<svg xmlns="http://www.w3.org/2000/svg"
     xmlns:xlink="http://www.w3.org/1999/xlink"
     xmlns:gadfly="http://www.gadflyjl.org/ns"
     version="1.2"
     width="152.4mm" height="101.6mm" viewBox="0 0 152.4 101.6"
     stroke="none"
     fill="#000000"
     stroke-width="0.3"
     font-size="3.88"
>
<defs>
  <marker id="arrow" markerWidth="15" markerHeight="7" refX="5" refY="3.5" orient="auto" markerUnits="strokeWidth">
    <path d="M0,0 L15,3.5 L0,7 z" stroke="context-stroke" fill="context-stroke"/>
  </marker>
</defs>
<g class="plotroot xscalable yscalable" id="img-f2b93d26-1">
  <g font-size="3.88" font-family="'PT Sans','Helvetica Neue','Helvetica',sans-serif" fill="#564A55" stroke="#000000" stroke-opacity="0.000" id="img-f2b93d26-2">
    <g transform="translate(85.53,89.99)">
      <g class="primitive">
        <text text-anchor="middle" dy="0.6em">Strike in forward units</text>
      </g>
    </g>
  </g>
  <g class="guide xlabels" font-size="2.82" font-family="'PT Sans Caption','Helvetica Neue','Helvetica',sans-serif" fill="#6C606B" id="img-f2b93d26-3">
    <g transform="translate(25.65,83.32)">
      <g class="primitive">
        <text text-anchor="middle" dy="0.6em">-1</text>
      </g>
    </g>
    <g transform="translate(49.6,83.32)">
      <g class="primitive">
        <text text-anchor="middle" dy="0.6em">0</text>
      </g>
    </g>
    <g transform="translate(73.55,83.32)">
      <g class="primitive">
        <text text-anchor="middle" dy="0.6em">1</text>
      </g>
    </g>
    <g transform="translate(97.5,83.32)">
      <g class="primitive">
        <text text-anchor="middle" dy="0.6em">2</text>
      </g>
    </g>
    <g transform="translate(121.45,83.32)">
      <g class="primitive">
        <text text-anchor="middle" dy="0.6em">3</text>
      </g>
    </g>
    <g transform="translate(145.4,83.32)">
      <g class="primitive">
        <text text-anchor="middle" dy="0.6em">4</text>
      </g>
    </g>
  </g>
  <g clip-path="url(#img-f2b93d26-4)">
    <g id="img-f2b93d26-5">
      <g pointer-events="visible" fill="#000000" fill-opacity="0.000" stroke="#000000" stroke-opacity="0.000" class="guide background" id="img-f2b93d26-6">
        <g transform="translate(85.53,43.66)" id="img-f2b93d26-7">
          <path d="M-61.87,-38.66 L 61.87 -38.66 61.87 38.66 -61.87 38.66 z" class="primitive"/>
        </g>
      </g>
      <g class="guide ygridlines xfixed" stroke-dasharray="0.5,0.5" stroke-width="0.2" stroke="#D0D0E0" id="img-f2b93d26-8">
        <g transform="translate(85.53,80.31)" id="img-f2b93d26-9">
          <path fill="none" d="M-61.87,0 L 61.87 0" class="primitive"/>
        </g>
        <g transform="translate(85.53,61.99)" id="img-f2b93d26-10">
          <path fill="none" d="M-61.87,0 L 61.87 0" class="primitive"/>
        </g>
        <g transform="translate(85.53,43.66)" id="img-f2b93d26-11">
          <path fill="none" d="M-61.87,0 L 61.87 0" class="primitive"/>
        </g>
        <g transform="translate(85.53,25.33)" id="img-f2b93d26-12">
          <path fill="none" d="M-61.87,0 L 61.87 0" class="primitive"/>
        </g>
        <g transform="translate(85.53,7)" id="img-f2b93d26-13">
          <path fill="none" d="M-61.87,0 L 61.87 0" class="primitive"/>
        </g>
      </g>
      <g class="guide xgridlines yfixed" stroke-dasharray="0.5,0.5" stroke-width="0.2" stroke="#D0D0E0" id="img-f2b93d26-14">
        <g transform="translate(25.65,43.66)" id="img-f2b93d26-15">
          <path fill="none" d="M0,-38.66 L 0 38.66" class="primitive"/>
        </g>
        <g transform="translate(49.6,43.66)" id="img-f2b93d26-16">
          <path fill="none" d="M0,-38.66 L 0 38.66" class="primitive"/>
        </g>
        <g transform="translate(73.55,43.66)" id="img-f2b93d26-17">
          <path fill="none" d="M0,-38.66 L 0 38.66" class="primitive"/>
        </g>
        <g transform="translate(97.5,43.66)" id="img-f2b93d26-18">
          <path fill="none" d="M0,-38.66 L 0 38.66" class="primitive"/>
        </g>
        <g transform="translate(121.45,43.66)" id="img-f2b93d26-19">
          <path fill="none" d="M0,-38.66 L 0 38.66" class="primitive"/>
        </g>
        <g transform="translate(145.4,43.66)" id="img-f2b93d26-20">
          <path fill="none" d="M0,-38.66 L 0 38.66" class="primitive"/>
        </g>
      </g>
      <g class="plotpanel" id="img-f2b93d26-21">
        <metadata>
          <boundingbox value="23.65166666666667mm 5.0mm 123.7483333333333mm 77.315mm"/>
          <unitbox value="-1.0835084691505796 0.0032218236377276137 5.16701693830116 -0.0008436472754552274"/>
        </metadata>
        <g stroke-width="0.3" fill="#000000" fill-opacity="0.000" class="geometry" id="img-f2b93d26-22">
          <g class="color_LCHab{Float32}(70.0f0,60.0f0,240.0f0)" stroke-dasharray="none" stroke="#00BFFF" id="img-f2b93d26-23">
            <g transform="translate(85.53,52.69)" id="img-f2b93d26-24">
              <path fill="none" d="M-59.87,-34.42 L -59.75 -34.18 -59.63 -33.94 -59.51 -33.7 -59.4 -33.46 -59.28 -33.22 -59.16 -32.98 -59.04 -32.74 -58.92 -32.5 -58.8 -32.26 -58.68 -32.02 -58.56 -31.78 -58.44 -31.54 -58.32 -31.3 -58.2 -31.06 -58.08 -30.82 -57.96 -30.58 -57.84 -30.35 -57.72 -30.11 -57.6 -29.87 -57.48 -29.63 -57.36 -29.39 -57.24 -29.15 -57.12 -28.91 -57 -28.67 -56.88 -28.43 -56.76 -28.19 -56.64 -27.95 -56.52 -27.71 -56.4 -27.47 -56.28 -27.23 -56.16 -27 -56.04 -26.76 -55.92 -26.52 -55.8 -26.28 -55.68 -26.04 -55.56 -25.8 -55.44 -25.56 -55.32 -25.33 -55.2 -25.09 -55.08 -24.85 -54.96 -24.61 -54.84 -24.37 -54.72 -24.13 -54.61 -23.9 -54.49 -23.66 -54.37 -23.42 -54.25 -23.18 -54.13 -22.95 -54.01 -22.71 -53.89 -22.47 -53.77 -22.23 -53.65 -22 -53.53 -21.76 -53.41 -21.52 -53.29 -21.29 -53.17 -21.05 -53.05 -20.81 -52.93 -20.58 -52.81 -20.34 -52.69 -20.1 -52.57 -19.87 -52.45 -19.63 -52.33 -19.4 -52.21 -19.16 -52.09 -18.92 -51.97 -18.69 -51.85 -18.45 -51.73 -18.22 -51.61 -17.98 -51.49 -17.75 -51.37 -17.51 -51.25 -17.28 -51.13 -17.04 -51.01 -16.81 -50.89 -16.58 -50.77 -16.34 -50.65 -16.11 -50.53 -15.87 -50.41 -15.64 -50.29 -15.41 -50.17 -15.17 -50.05 -14.94 -49.94 -14.71 -49.82 -14.48 -49.7 -14.24 -49.58 -14.01 -49.46 -13.78 -49.34 -13.55 -49.22 -13.32 -49.1 -13.08 -48.98 -12.85 -48.86 -12.62 -48.74 -12.39 -48.62 -12.16 -48.5 -11.93 -48.38 -11.7 -48.26 -11.47 -48.14 -11.24 -48.02 -11.01 -47.9 -10.78 -47.78 -10.55 -47.66 -10.33 -47.54 -10.1 -47.42 -9.87 -47.3 -9.64 -47.18 -9.41 -47.06 -9.19 -46.94 -8.96 -46.82 -8.73 -46.7 -8.51 -46.58 -8.28 -46.46 -8.06 -46.34 -7.83 -46.22 -7.61 -46.1 -7.38 -45.98 -7.16 -45.86 -6.93 -45.74 -6.71 -45.62 -6.49 -45.5 -6.26 -45.38 -6.04 -45.26 -5.82 -45.15 -5.6 -45.03 -5.38 -44.91 -5.15 -44.79 -4.93 -44.67 -4.71 -44.55 -4.49 -44.43 -4.28 -44.31 -4.06 -44.19 -3.84 -44.07 -3.62 -43.95 -3.4 -43.83 -3.19 -43.71 -2.97 -43.59 -2.76 -43.47 -2.54 -43.35 -2.33 -43.23 -2.11 -43.11 -1.9 -42.99 -1.68 -42.87 -1.47 -42.75 -1.26 -42.63 -1.05 -42.51 -0.84 -42.39 -0.63 -42.27 -0.42 -42.15 -0.21 -42.03 -0 -41.91 0.2 -41.79 0.41 -41.67 0.62 -41.55 0.82 -41.43 1.03 -41.31 1.23 -41.19 1.43 -41.07 1.63 -40.95 1.83 -40.83 2.03 -40.71 2.23 -40.59 2.43 -40.47 2.63 -40.36 2.83 -40.24 3.02 -40.12 3.21 -40 3.41 -39.88 3.6 -39.76 3.79 -39.64 3.98 -39.52 4.17 -39.4 4.36 -39.28 4.54 -39.16 4.73 -39.04 4.91 -38.92 5.1 -38.8 5.28 -38.68 5.46 -38.56 5.63 -38.44 5.81 -38.32 5.98 -38.2 6.16 -38.08 6.33 -37.96 6.5 -37.84 6.67 -37.72 6.83 -37.6 7 -37.48 7.16 -37.36 7.32 -37.24 7.47 -37.12 7.63 -37 7.78 -36.88 7.93 -36.76 8.07 -36.64 8.22 -36.52 8.35 -36.4 8.49 -36.28 8.62 -36.16 8.75 -36.04 8.87 -35.92 8.98 -35.8 9.08 -35.69 9.17 -35.57 9.26 -35.45 9.34 -35.33 9.42 -35.21 9.49 -35.09 9.57 -34.97 9.63 -34.85 9.7 -34.73 9.76 -34.61 9.83 -34.49 9.89 -34.37 9.94 -34.25 10 -34.13 10.05 -34.01 10.11 -33.89 10.16 -33.77 10.21 -33.65 10.26 -33.53 10.31 -33.41 10.35 -33.29 10.4 -33.17 10.44 -33.05 10.49 -32.93 10.53 -32.81 10.57 -32.69 10.62 -32.57 10.66 -32.45 10.7 -32.33 10.74 -32.21 10.78 -32.09 10.82 -31.97 10.86 -31.85 10.9 -31.73 10.93 -31.61 10.97 -31.49 11.01 -31.37 11.05 -31.25 11.08 -31.13 11.12 -31.01 11.15 -30.9 11.19 -30.78 11.23 -30.66 11.26 -30.54 11.3 -30.42 11.33 -30.3 11.37 -30.18 11.4 -30.06 11.44 -29.94 11.47 -29.82 11.51 -29.7 11.54 -29.58 11.58 -29.46 11.61 -29.34 11.65 -29.22 11.68 -29.1 11.72 -28.98 11.75 -28.86 11.79 -28.74 11.82 -28.62 11.86 -28.5 11.89 -28.38 11.93 -28.26 11.96 -28.14 12 -28.02 12.04 -27.9 12.07 -27.78 12.11 -27.66 12.14 -27.54 12.18 -27.42 12.21 -27.3 12.25 -27.18 12.28 -27.06 12.32 -26.94 12.36 -26.82 12.39 -26.7 12.43 -26.58 12.46 -26.46 12.5 -26.34 12.54 -26.22 12.57 -26.11 12.61 -25.99 12.65 -25.87 12.68 -25.75 12.72 -25.63 12.76 -25.51 12.79 -25.39 12.83 -25.27 12.87 -25.15 12.9 -25.03 12.94 -24.91 12.98 -24.79 13.02 -24.67 13.05 -24.55 13.09 -24.43 13.13 -24.31 13.17 -24.19 13.21 -24.07 13.24 -23.95 13.28 -23.83 13.32 -23.71 13.36 -23.59 13.4 -23.47 13.43 -23.35 13.47 -23.23 13.51 -23.11 13.55 -22.99 13.59 -22.87 13.63 -22.75 13.66 -22.63 13.7 -22.51 13.74 -22.39 13.78 -22.27 13.82 -22.15 13.86 -22.03 13.9 -21.91 13.94 -21.79 13.97 -21.67 14.01 -21.55 14.05 -21.43 14.09 -21.32 14.13 -21.2 14.17 -21.08 14.21 -20.96 14.25 -20.84 14.28 -20.72 14.32 -20.6 14.36 -20.48 14.4 -20.36 14.44 -20.24 14.48 -20.12 14.52 -20 14.56 -19.88 14.59 -19.76 14.63 -19.64 14.67 -19.52 14.71 -19.4 14.75 -19.28 14.79 -19.16 14.82 -19.04 14.86 -18.92 14.9 -18.8 14.94 -18.68 14.98 -18.56 15.02 -18.44 15.05 -18.32 15.09 -18.2 15.13 -18.08 15.17 -17.96 15.2 -17.84 15.24 -17.72 15.28 -17.6 15.32 -17.48 15.35 -17.36 15.39 -17.24 15.43 -17.12 15.46 -17 15.5 -16.88 15.54 -16.76 15.57 -16.65 15.61 -16.53 15.64 -16.41 15.68 -16.29 15.71 -16.17 15.75 -16.05 15.79 -15.93 15.82 -15.81 15.86 -15.69 15.89 -15.57 15.92 -15.45 15.96 -15.33 15.99 -15.21 16.03 -15.09 16.06 -14.97 16.09 -14.85 16.13 -14.73 16.16 -14.61 16.19 -14.49 16.23 -14.37 16.26 -14.25 16.29 -14.13 16.32 -14.01 16.36 -13.89 16.39 -13.77 16.42 -13.65 16.45 -13.53 16.48 -13.41 16.51 -13.29 16.54 -13.17 16.57 -13.05 16.6 -12.93 16.63 -12.81 16.66 -12.69 16.69 -12.57 16.72 -12.45 16.75 -12.33 16.78 -12.21 16.8 -12.09 16.83 -11.97 16.86 -11.86 16.89 -11.74 16.91 -11.62 16.94 -11.5 16.97 -11.38 16.99 -11.26 17.02 -11.14 17.04 -11.02 17.07 -10.9 17.09 -10.78 17.12 -10.66 17.14 -10.54 17.16 -10.42 17.19 -10.3 17.21 -10.18 17.23 -10.06 17.26 -9.94 17.28 -9.82 17.3 -9.7 17.32 -9.58 17.34 -9.46 17.36 -9.34 17.38 -9.22 17.4 -9.1 17.42 -8.98 17.44 -8.86 17.46 -8.74 17.48 -8.62 17.5 -8.5 17.51 -8.38 17.53 -8.26 17.55 -8.14 17.56 -8.02 17.58 -7.9 17.6 -7.78 17.61 -7.66 17.63 -7.54 17.64 -7.42 17.65 -7.3 17.67 -7.18 17.68 -7.07 17.69 -6.95 17.71 -6.83 17.72 -6.71 17.73 -6.59 17.74 -6.47 17.75 -6.35 17.76 -6.23 17.77 -6.11 17.78 -5.99 17.79 -5.87 17.8 -5.75 17.81 -5.63 17.82 -5.51 17.82 -5.39 17.83 -5.27 17.84 -5.15 17.84 -5.03 17.85 -4.91 17.85 -4.79 17.86 -4.67 17.86 -4.55 17.87 -4.43 17.87 -4.31 17.87 -4.19 17.87 -4.07 17.88 -3.95 17.88 -3.83 17.88 -3.71 17.88 -3.59 17.88 -3.47 17.88 -3.35 17.88 -3.23 17.87 -3.11 17.87 -2.99 17.87 -2.87 17.87 -2.75 17.86 -2.63 17.86 -2.51 17.86 -2.39 17.85 -2.28 17.85 -2.16 17.84 -2.04 17.83 -1.92 17.83 -1.8 17.82 -1.68 17.81 -1.56 17.8 -1.44 17.79 -1.32 17.79 -1.2 17.78 -1.08 17.77 -0.96 17.75 -0.84 17.74 -0.72 17.73 -0.6 17.72 -0.48 17.71 -0.36 17.69 -0.24 17.68 -0.12 17.66 0 17.65 0.12 17.63 0.24 17.62 0.36 17.6 0.48 17.59 0.6 17.57 0.72 17.55 0.84 17.53 0.96 17.51 1.08 17.49 1.2 17.47 1.32 17.45 1.44 17.43 1.56 17.41 1.68 17.39 1.8 17.37 1.92 17.34 2.04 17.32 2.16 17.29 2.28 17.27 2.39 17.24 2.51 17.22 2.63 17.19 2.75 17.17 2.87 17.14 2.99 17.11 3.11 17.08 3.23 17.05 3.35 17.02 3.47 16.99 3.59 16.96 3.71 16.93 3.83 16.9 3.95 16.87 4.07 16.84 4.19 16.8 4.31 16.77 4.43 16.74 4.55 16.7 4.67 16.67 4.79 16.63 4.91 16.59 5.03 16.56 5.15 16.52 5.27 16.48 5.39 16.44 5.51 16.4 5.63 16.37 5.75 16.33 5.87 16.28 5.99 16.24 6.11 16.2 6.23 16.16 6.35 16.12 6.47 16.07 6.59 16.03 6.71 15.99 6.83 15.94 6.95 15.9 7.07 15.85 7.18 15.81 7.3 15.76 7.42 15.71 7.54 15.66 7.66 15.62 7.78 15.57 7.9 15.52 8.02 15.47 8.14 15.42 8.26 15.37 8.38 15.31 8.5 15.26 8.62 15.21 8.74 15.16 8.86 15.1 8.98 15.05 9.1 15 9.22 14.94 9.34 14.88 9.46 14.83 9.58 14.77 9.7 14.72 9.82 14.66 9.94 14.6 10.06 14.54 10.18 14.48 10.3 14.42 10.42 14.36 10.54 14.3 10.66 14.24 10.78 14.18 10.9 14.12 11.02 14.05 11.14 13.99 11.26 13.93 11.38 13.86 11.5 13.8 11.62 13.73 11.74 13.67 11.86 13.6 11.97 13.54 12.09 13.47 12.21 13.4 12.33 13.33 12.45 13.27 12.57 13.2 12.69 13.13 12.81 13.06 12.93 12.99 13.05 12.92 13.17 12.85 13.29 12.77 13.41 12.7 13.53 12.63 13.65 12.56 13.77 12.48 13.89 12.41 14.01 12.33 14.13 12.26 14.25 12.18 14.37 12.11 14.49 12.03 14.61 11.95 14.73 11.87 14.85 11.8 14.97 11.72 15.09 11.64 15.21 11.56 15.33 11.48 15.45 11.4 15.57 11.32 15.69 11.24 15.81 11.16 15.93 11.08 16.05 10.99 16.17 10.91 16.29 10.83 16.41 10.74 16.53 10.66 16.65 10.57 16.76 10.49 16.88 10.4 17 10.32 17.12 10.23 17.24 10.14 17.36 10.06 17.48 9.97 17.6 9.88 17.72 9.79 17.84 9.7 17.96 9.61 18.08 9.52 18.2 9.43 18.32 9.34 18.44 9.25 18.56 9.16 18.68 9.07 18.8 8.98 18.92 8.88 19.04 8.79 19.16 8.7 19.28 8.6 19.4 8.51 19.52 8.41 19.64 8.32 19.76 8.22 19.88 8.13 20 8.03 20.12 7.93 20.24 7.84 20.36 7.74 20.48 7.64 20.6 7.54 20.72 7.44 20.84 7.34 20.96 7.25 21.08 7.15 21.2 7.04 21.32 6.94 21.43 6.84 21.55 6.74 21.67 6.64 21.79 6.54 21.91 6.43 22.03 6.33 22.15 6.23 22.27 6.12 22.39 6.02 22.51 5.92 22.63 5.81 22.75 5.71 22.87 5.6 22.99 5.49 23.11 5.39 23.23 5.28 23.35 5.17 23.47 5.07 23.59 4.96 23.71 4.85 23.83 4.74 23.95 4.63 24.07 4.52 24.19 4.41 24.31 4.31 24.43 4.19 24.55 4.08 24.67 3.97 24.79 3.86 24.91 3.75 25.03 3.64 25.15 3.53 25.27 3.41 25.39 3.3 25.51 3.19 25.63 3.07 25.75 2.96 25.87 2.85 25.99 2.73 26.11 2.62 26.22 2.5 26.34 2.39 26.46 2.27 26.58 2.15 26.7 2.04 26.82 1.92 26.94 1.8 27.06 1.69 27.18 1.57 27.3 1.45 27.42 1.33 27.54 1.21 27.66 1.09 27.78 0.97 27.9 0.85 28.02 0.73 28.14 0.61 28.26 0.49 28.38 0.37 28.5 0.25 28.62 0.13 28.74 0.01 28.86 -0.11 28.98 -0.24 29.1 -0.36 29.22 -0.48 29.34 -0.6 29.46 -0.73 29.58 -0.85 29.7 -0.98 29.82 -1.1 29.94 -1.22 30.06 -1.35 30.18 -1.47 30.3 -1.6 30.42 -1.73 30.54 -1.85 30.66 -1.98 30.78 -2.1 30.9 -2.23 31.01 -2.36 31.13 -2.49 31.25 -2.61 31.37 -2.74 31.49 -2.87 31.61 -3 31.73 -3.13 31.85 -3.25 31.97 -3.38 32.09 -3.51 32.21 -3.64 32.33 -3.77 32.45 -3.9 32.57 -4.03 32.69 -4.16 32.81 -4.3 32.93 -4.43 33.05 -4.56 33.17 -4.69 33.29 -4.82 33.41 -4.95 33.53 -5.09 33.65 -5.22 33.77 -5.35 33.89 -5.48 34.01 -5.62 34.13 -5.75 34.25 -5.89 34.37 -6.02 34.49 -6.15 34.61 -6.29 34.73 -6.42 34.85 -6.56 34.97 -6.69 35.09 -6.83 35.21 -6.96 35.33 -7.1 35.45 -7.24 35.57 -7.37 35.69 -7.51 35.8 -7.65 35.92 -7.78 36.04 -7.92 36.16 -8.06 36.28 -8.2 36.4 -8.33 36.52 -8.47 36.64 -8.61 36.76 -8.75 36.88 -8.89 37 -9.03 37.12 -9.17 37.24 -9.31 37.36 -9.45 37.48 -9.58 37.6 -9.72 37.72 -9.87 37.84 -10.01 37.96 -10.15 38.08 -10.29 38.2 -10.43 38.32 -10.57 38.44 -10.71 38.56 -10.85 38.68 -10.99 38.8 -11.14 38.92 -11.28 39.04 -11.42 39.16 -11.56 39.28 -11.71 39.4 -11.85 39.52 -11.99 39.64 -12.14 39.76 -12.28 39.88 -12.42 40 -12.57 40.12 -12.71 40.24 -12.85 40.36 -13 40.47 -13.14 40.59 -13.29 40.71 -13.43 40.83 -13.58 40.95 -13.72 41.07 -13.87 41.19 -14.02 41.31 -14.16 41.43 -14.31 41.55 -14.45 41.67 -14.6 41.79 -14.75 41.91 -14.89 42.03 -15.04 42.15 -15.19 42.27 -15.33 42.39 -15.48 42.51 -15.63 42.63 -15.78 42.75 -15.92 42.87 -16.07 42.99 -16.22 43.11 -16.37 43.23 -16.52 43.35 -16.67 43.47 -16.82 43.59 -16.96 43.71 -17.11 43.83 -17.26 43.95 -17.41 44.07 -17.56 44.19 -17.71 44.31 -17.86 44.43 -18.01 44.55 -18.16 44.67 -18.31 44.79 -18.46 44.91 -18.61 45.03 -18.76 45.15 -18.92 45.26 -19.07 45.38 -19.22 45.5 -19.37 45.62 -19.52 45.74 -19.67 45.86 -19.82 45.98 -19.98 46.1 -20.13 46.22 -20.28 46.34 -20.43 46.46 -20.59 46.58 -20.74 46.7 -20.89 46.82 -21.04 46.94 -21.2 47.06 -21.35 47.18 -21.5 47.3 -21.66 47.42 -21.81 47.54 -21.96 47.66 -22.12 47.78 -22.27 47.9 -22.43 48.02 -22.58 48.14 -22.73 48.26 -22.89 48.38 -23.04 48.5 -23.2 48.62 -23.35 48.74 -23.51 48.86 -23.66 48.98 -23.82 49.1 -23.97 49.22 -24.13 49.34 -24.29 49.46 -24.44 49.58 -24.6 49.7 -24.75 49.82 -24.91 49.94 -25.07 50.05 -25.22 50.17 -25.38 50.29 -25.53 50.41 -25.69 50.53 -25.85 50.65 -26.01 50.77 -26.16 50.89 -26.32 51.01 -26.48 51.13 -26.63 51.25 -26.79 51.37 -26.95 51.49 -27.11 51.61 -27.26 51.73 -27.42 51.85 -27.58 51.97 -27.74 52.09 -27.9 52.21 -28.06 52.33 -28.21 52.45 -28.37 52.57 -28.53 52.69 -28.69 52.81 -28.85 52.93 -29.01 53.05 -29.17 53.17 -29.33 53.29 -29.49 53.41 -29.64 53.53 -29.8 53.65 -29.96 53.77 -30.12 53.89 -30.28 54.01 -30.44 54.13 -30.6 54.25 -30.76 54.37 -30.92 54.49 -31.08 54.61 -31.24 54.72 -31.4 54.84 -31.56 54.96 -31.73 55.08 -31.89 55.2 -32.05 55.32 -32.21 55.44 -32.37 55.56 -32.53 55.68 -32.69 55.8 -32.85 55.92 -33.01 56.04 -33.17 56.16 -33.34 56.28 -33.5 56.4 -33.66 56.52 -33.82 56.64 -33.98 56.76 -34.15 56.88 -34.31 57 -34.47 57.12 -34.63 57.24 -34.79 57.36 -34.96 57.48 -35.12 57.6 -35.28 57.72 -35.44 57.84 -35.61 57.96 -35.77 58.08 -35.93 58.2 -36.1 58.32 -36.26 58.44 -36.42 58.56 -36.58 58.68 -36.75 58.8 -36.91 58.92 -37.07 59.04 -37.24 59.16 -37.4 59.28 -37.56 59.4 -37.73 59.51 -37.89 59.63 -38.06 59.75 -38.22 59.87 -38.38" class="primitive"/>
            </g>
          </g>
        </g>
      </g>
    </g>
  </g>
  <g class="guide ylabels" font-size="2.82" font-family="'PT Sans Caption','Helvetica Neue','Helvetica',sans-serif" fill="#6C606B" id="img-f2b93d26-25">
    <g transform="translate(22.65,80.31)" id="img-f2b93d26-26">
      <g class="primitive">
        <text text-anchor="end" dy="0.35em">0.0024</text>
      </g>
    </g>
    <g transform="translate(22.65,61.99)" id="img-f2b93d26-27">
      <g class="primitive">
        <text text-anchor="end" dy="0.35em">0.0026</text>
      </g>
    </g>
    <g transform="translate(22.65,43.66)" id="img-f2b93d26-28">
      <g class="primitive">
        <text text-anchor="end" dy="0.35em">0.0028</text>
      </g>
    </g>
    <g transform="translate(22.65,25.33)" id="img-f2b93d26-29">
      <g class="primitive">
        <text text-anchor="end" dy="0.35em">0.0030</text>
      </g>
    </g>
    <g transform="translate(22.65,7)" id="img-f2b93d26-30">
      <g class="primitive">
        <text text-anchor="end" dy="0.35em">0.0032</text>
      </g>
    </g>
  </g>
  <g font-size="3.88" font-family="'PT Sans','Helvetica Neue','Helvetica',sans-serif" fill="#564A55" stroke="#000000" stroke-opacity="0.000" id="img-f2b93d26-31">
    <g transform="translate(8.81,41.66)" id="img-f2b93d26-32">
      <g class="primitive">
        <text text-anchor="middle" dy="0.35em" transform="rotate(-90,0, 2)">Implied volatility</text>
      </g>
    </g>
  </g>
</g>
<defs>
  <clipPath id="img-f2b93d26-4">
    <path d="M23.65,5 L 147.4 5 147.4 82.32 23.65 82.32" />
  </clipPath>
</defs>
</svg>
