<?xml version="1.0" encoding="UTF-8"?>
<svg xmlns="http://www.w3.org/2000/svg"
     xmlns:xlink="http://www.w3.org/1999/xlink"
     xmlns:gadfly="http://www.gadflyjl.org/ns"
     version="1.2"
     width="152.4mm" height="101.6mm" viewBox="0 0 152.4 101.6"
     stroke="none"
     fill="#000000"
     stroke-width="0.3"
     font-size="3.88"
>
<defs>
  <marker id="arrow" markerWidth="15" markerHeight="7" refX="5" refY="3.5" orient="auto" markerUnits="strokeWidth">
    <path d="M0,0 L15,3.5 L0,7 z" stroke="context-stroke" fill="context-stroke"/>
  </marker>
</defs>
<g class="plotroot xscalable yscalable" id="img-98783e4a-1">
  <g font-size="3.88" font-family="'PT Sans','Helvetica Neue','Helvetica',sans-serif" fill="#564A55" stroke="#000000" stroke-opacity="0.000" id="img-98783e4a-2">
    <g transform="translate(83.02,89.99)">
      <g class="primitive">
        <text text-anchor="middle" dy="0.6em">Strike</text>
      </g>
    </g>
  </g>
  <g class="guide xlabels" font-size="2.82" font-family="'PT Sans Caption','Helvetica Neue','Helvetica',sans-serif" fill="#6C606B" id="img-98783e4a-3">
    <g transform="translate(20.63,83.32)">
      <g class="primitive">
        <text text-anchor="middle" dy="0.6em">0.0</text>
      </g>
    </g>
    <g transform="translate(45.59,83.32)">
      <g class="primitive">
        <text text-anchor="middle" dy="0.6em">0.5</text>
      </g>
    </g>
    <g transform="translate(70.54,83.32)">
      <g class="primitive">
        <text text-anchor="middle" dy="0.6em">1.0</text>
      </g>
    </g>
    <g transform="translate(95.49,83.32)">
      <g class="primitive">
        <text text-anchor="middle" dy="0.6em">1.5</text>
      </g>
    </g>
    <g transform="translate(120.45,83.32)">
      <g class="primitive">
        <text text-anchor="middle" dy="0.6em">2.0</text>
      </g>
    </g>
    <g transform="translate(145.4,83.32)">
      <g class="primitive">
        <text text-anchor="middle" dy="0.6em">2.5</text>
      </g>
    </g>
  </g>
  <g clip-path="url(#img-98783e4a-4)">
    <g id="img-98783e4a-5">
      <g pointer-events="visible" fill="#000000" fill-opacity="0.000" stroke="#000000" stroke-opacity="0.000" class="guide background" id="img-98783e4a-6">
        <g transform="translate(83.02,43.66)" id="img-98783e4a-7">
          <path d="M-64.38,-38.66 L 64.38 -38.66 64.38 38.66 -64.38 38.66 z" class="primitive"/>
        </g>
      </g>
      <g class="guide ygridlines xfixed" stroke-dasharray="0.5,0.5" stroke-width="0.2" stroke="#D0D0E0" id="img-98783e4a-8">
        <g transform="translate(83.02,80.32)" id="img-98783e4a-9">
          <path fill="none" d="M-64.38,0 L 64.38 0" class="primitive"/>
        </g>
        <g transform="translate(83.02,55.88)" id="img-98783e4a-10">
          <path fill="none" d="M-64.38,0 L 64.38 0" class="primitive"/>
        </g>
        <g transform="translate(83.02,31.44)" id="img-98783e4a-11">
          <path fill="none" d="M-64.38,0 L 64.38 0" class="primitive"/>
        </g>
        <g transform="translate(83.02,7)" id="img-98783e4a-12">
          <path fill="none" d="M-64.38,0 L 64.38 0" class="primitive"/>
        </g>
      </g>
      <g class="guide xgridlines yfixed" stroke-dasharray="0.5,0.5" stroke-width="0.2" stroke="#D0D0E0" id="img-98783e4a-13">
        <g transform="translate(20.63,43.66)" id="img-98783e4a-14">
          <path fill="none" d="M0,-38.66 L 0 38.66" class="primitive"/>
        </g>
        <g transform="translate(45.59,43.66)" id="img-98783e4a-15">
          <path fill="none" d="M0,-38.66 L 0 38.66" class="primitive"/>
        </g>
        <g transform="translate(70.54,43.66)" id="img-98783e4a-16">
          <path fill="none" d="M0,-38.66 L 0 38.66" class="primitive"/>
        </g>
        <g transform="translate(95.49,43.66)" id="img-98783e4a-17">
          <path fill="none" d="M0,-38.66 L 0 38.66" class="primitive"/>
        </g>
        <g transform="translate(120.45,43.66)" id="img-98783e4a-18">
          <path fill="none" d="M0,-38.66 L 0 38.66" class="primitive"/>
        </g>
        <g transform="translate(145.4,43.66)" id="img-98783e4a-19">
          <path fill="none" d="M0,-38.66 L 0 38.66" class="primitive"/>
        </g>
      </g>
      <g class="plotpanel" id="img-98783e4a-20">
        <metadata>
          <boundingbox value="18.63166666666669mm 5.0mm 128.76833333333332mm 77.315mm"/>
          <unitbox value="-0.040074270982220384 1.5409193207392757 2.5801485419644408 -1.5818386414785515"/>
        </metadata>
        <g stroke-width="0.3" fill="#000000" fill-opacity="0.000" class="geometry" id="img-98783e4a-21">
          <g class="color_LCHab{Float32}(70.0f0,60.0f0,240.0f0)" stroke-dasharray="none" stroke="#00BFFF" id="img-98783e4a-22">
            <g transform="translate(70.59,57.3)" id="img-98783e4a-23">
              <path fill="none" d="M-49.86,22.3 L -49.76 22.3 -49.66 22.28 -49.56 22.33 -49.46 22.3 -49.36 22.29 -49.26 22.34 -49.16 22.31 -49.06 22.32 -48.96 22.31 -48.86 22.32 -48.76 22.31 -48.66 22.33 -48.56 22.34 -48.46 22.31 -48.36 22.3 -48.26 22.3 -48.16 22.29 -48.06 22.28 -47.96 22.29 -47.86 22.35 -47.76 22.27 -47.66 22.31 -47.56 22.29 -47.46 22.34 -47.36 22.3 -47.26 22.29 -47.16 22.33 -47.06 22.34 -46.96 22.28 -46.86 22.31 -46.76 21.05 -46.66 21.06 -46.56 21.04 -46.46 21.04 -46.36 21.08 -46.26 21.03 -46.16 21.05 -46.06 21.05 -45.96 21.07 -45.86 21.05 -45.77 21.07 -45.67 21.04 -45.57 21.08 -45.47 21.07 -45.37 21.07 -45.27 21.06 -45.17 21.04 -45.07 21.07 -44.97 21.06 -44.87 21.04 -44.77 21.02 -44.67 21.07 -44.57 21.09 -44.47 21.01 -44.37 21.06 -44.27 21.04 -44.17 21.04 -44.07 21.03 -43.97 21.03 -43.87 21.05 -43.77 21.06 -43.67 21.04 -43.57 21.06 -43.47 21.04 -43.37 21.04 -43.27 21.07 -43.17 21.03 -43.07 21.06 -42.97 21.03 -42.87 21.07 -42.77 21.05 -42.67 21.03 -42.57 21.05 -42.47 19.55 -42.37 19.51 -42.27 19.52 -42.17 19.56 -42.07 19.53 -41.97 19.54 -41.87 19.56 -41.77 19.56 -41.67 19.54 -41.57 19.54 -41.47 19.58 -41.37 19.55 -41.27 19.53 -41.17 19.54 -41.07 19.57 -40.97 19.55 -40.87 19.55 -40.77 19.54 -40.67 19.54 -40.57 19.54 -40.47 19.55 -40.38 19.53 -40.28 19.54 -40.18 19.54 -40.08 19.53 -39.98 19.54 -39.88 19.55 -39.78 19.59 -39.68 19.55 -39.58 19.54 -39.48 19.59 -39.38 19.54 -39.28 19.56 -39.18 19.56 -39.08 19.55 -38.98 19.56 -38.88 19.54 -38.78 19.54 -38.68 19.56 -38.58 19.55 -38.48 19.53 -38.38 19.54 -38.28 19.53 -38.18 19.57 -38.08 17.6 -37.98 17.63 -37.88 17.62 -37.78 17.63 -37.68 17.61 -37.58 17.61 -37.48 17.62 -37.38 17.64 -37.28 17.62 -37.18 17.6 -37.08 17.62 -36.98 17.63 -36.88 17.62 -36.78 17.6 -36.68 17.62 -36.58 17.59 -36.48 17.59 -36.38 17.62 -36.28 17.63 -36.18 17.62 -36.08 17.6 -35.98 17.64 -35.88 17.62 -35.78 17.62 -35.68 17.62 -35.58 17.62 -35.48 17.62 -35.38 17.62 -35.28 17.63 -35.18 17.6 -35.08 17.63 -34.99 17.61 -34.89 17.62 -34.79 17.58 -34.69 17.6 -34.59 17.62 -34.49 17.62 -34.39 17.59 -34.29 17.6 -34.19 17.62 -34.09 17.63 -33.99 17.6 -33.89 17.63 -33.79 15.12 -33.69 15.1 -33.59 15.1 -33.49 15.12 -33.39 15.09 -33.29 15.11 -33.19 15.11 -33.09 15.11 -32.99 15.08 -32.89 15.1 -32.79 15.12 -32.69 15.11 -32.59 15.09 -32.49 15.11 -32.39 15.1 -32.29 15.08 -32.19 15.11 -32.09 15.12 -31.99 15.12 -31.89 15.09 -31.79 15.11 -31.69 15.11 -31.59 15.1 -31.49 15.09 -31.39 15.12 -31.29 15.11 -31.19 15.08 -31.09 15.09 -30.99 15.12 -30.89 15.08 -30.79 15.08 -30.69 15.08 -30.59 15.11 -30.49 15.1 -30.39 15.1 -30.29 15.11 -30.19 15.1 -30.09 15.08 -29.99 15.1 -29.89 15.11 -29.79 11.87 -29.69 11.86 -29.6 11.89 -29.5 11.89 -29.4 11.86 -29.3 11.87 -29.2 11.89 -29.1 11.89 -29 11.85 -28.9 11.86 -28.8 11.88 -28.7 11.86 -28.6 11.87 -28.5 11.87 -28.4 11.86 -28.3 11.88 -28.2 11.87 -28.1 11.88 -28 11.87 -27.9 11.89 -27.8 11.88 -27.7 11.89 -27.6 11.87 -27.5 11.87 -27.4 11.87 -27.3 11.87 -27.2 11.87 -27.1 11.86 -27 11.85 -26.9 11.87 -26.8 11.86 -26.7 11.87 -26.6 11.88 -26.5 11.87 -26.4 11.9 -26.3 11.9 -26.2 11.9 -26.1 11.87 -26 7.8 -25.9 7.79 -25.8 7.82 -25.7 7.79 -25.6 7.78 -25.5 7.79 -25.4 7.81 -25.3 7.77 -25.2 7.79 -25.1 7.78 -25 7.77 -24.9 7.77 -24.8 7.78 -24.7 7.79 -24.6 7.77 -24.5 7.77 -24.4 7.8 -24.3 7.78 -24.21 7.78 -24.11 7.8 -24.01 7.81 -23.91 7.79 -23.81 7.77 -23.71 7.76 -23.61 7.79 -23.51 7.78 -23.41 7.8 -23.31 7.79 -23.21 7.77 -23.11 7.78 -23.01 7.79 -22.91 7.79 -22.81 7.78 -22.71 7.79 -22.61 7.79 -22.51 7.78 -22.41 2.74 -22.31 2.73 -22.21 2.73 -22.11 2.74 -22.01 2.75 -21.91 2.74 -21.81 2.74 -21.71 2.75 -21.61 2.74 -21.51 2.75 -21.41 2.75 -21.31 2.75 -21.21 2.74 -21.11 2.74 -21.01 2.75 -20.91 2.75 -20.81 2.74 -20.71 2.75 -20.61 2.75 -20.51 2.74 -20.41 2.73 -20.31 2.73 -20.21 2.74 -20.11 2.75 -20.01 2.74 -19.91 2.74 -19.81 2.75 -19.71 2.75 -19.61 2.75 -19.51 2.74 -19.41 2.74 -19.31 2.74 -19.21 2.75 -19.11 -3.28 -19.01 -3.28 -18.91 -3.27 -18.82 -3.27 -18.72 -3.27 -18.62 -3.28 -18.52 -3.28 -18.42 -3.28 -18.32 -3.27 -18.22 -3.27 -18.12 -3.27 -18.02 -3.25 -17.92 -3.27 -17.82 -3.27 -17.72 -3.28 -17.62 -3.28 -17.52 -3.28 -17.42 -3.27 -17.32 -3.28 -17.22 -3.27 -17.12 -3.28 -17.02 -3.27 -16.92 -3.28 -16.82 -3.28 -16.72 -3.28 -16.62 -3.27 -16.52 -3.28 -16.42 -3.27 -16.32 -3.28 -16.22 -3.27 -16.12 -10.16 -16.02 -10.17 -15.92 -10.17 -15.82 -10.18 -15.72 -10.16 -15.62 -10.17 -15.52 -10.17 -15.42 -10.18 -15.32 -10.18 -15.22 -10.16 -15.12 -10.17 -15.02 -10.17 -14.92 -10.18 -14.82 -10.16 -14.72 -10.18 -14.62 -10.17 -14.52 -10.16 -14.42 -10.18 -14.32 -10.16 -14.22 -10.17 -14.12 -10.18 -14.02 -10.17 -13.92 -10.18 -13.82 -10.17 -13.72 -10.16 -13.62 -10.18 -13.52 -10.17 -13.43 -10.18 -13.33 -10.16 -13.23 -17.7 -13.13 -17.7 -13.03 -17.71 -12.93 -17.71 -12.83 -17.71 -12.73 -17.7 -12.63 -17.71 -12.53 -17.71 -12.43 -17.7 -12.33 -17.7 -12.23 -17.71 -12.13 -17.71 -12.03 -17.7 -11.93 -17.7 -11.83 -17.71 -11.73 -17.71 -11.63 -17.7 -11.53 -17.7 -11.43 -17.71 -11.33 -17.7 -11.23 -17.71 -11.13 -17.71 -11.03 -17.7 -10.93 -17.7 -10.83 -17.71 -10.73 -17.7 -10.63 -17.7 -10.53 -25.45 -10.43 -25.45 -10.33 -25.45 -10.23 -25.44 -10.13 -25.44 -10.03 -25.44 -9.93 -25.45 -9.83 -25.45 -9.73 -25.44 -9.63 -25.45 -9.53 -25.45 -9.43 -25.45 -9.33 -25.45 -9.23 -25.44 -9.13 -25.44 -9.03 -25.45 -8.93 -25.45 -8.83 -25.45 -8.73 -25.45 -8.63 -25.45 -8.53 -25.46 -8.43 -25.45 -8.33 -25.45 -8.23 -25.45 -8.13 -25.45 -8.04 -32.79 -7.94 -32.79 -7.84 -32.79 -7.74 -32.79 -7.64 -32.79 -7.54 -32.79 -7.44 -32.79 -7.34 -32.79 -7.24 -32.79 -7.14 -32.79 -7.04 -32.79 -6.94 -32.79 -6.84 -32.79 -6.74 -32.79 -6.64 -32.79 -6.54 -32.79 -6.44 -32.79 -6.34 -32.79 -6.24 -32.79 -6.14 -32.79 -6.04 -32.79 -5.94 -32.79 -5.84 -32.79 -5.74 -32.8 -5.64 -38.93 -5.54 -38.93 -5.44 -38.93 -5.34 -38.93 -5.24 -38.93 -5.14 -38.93 -5.04 -38.93 -4.94 -38.93 -4.84 -38.93 -4.74 -38.93 -4.64 -38.93 -4.54 -38.93 -4.44 -38.93 -4.34 -38.93 -4.24 -38.93 -4.14 -38.93 -4.04 -38.93 -3.94 -38.92 -3.84 -38.92 -3.74 -38.93 -3.64 -38.93 -3.54 -38.93 -3.44 -38.93 -3.34 -42.98 -3.24 -42.98 -3.14 -42.98 -3.04 -42.98 -2.94 -42.97 -2.84 -42.97 -2.74 -42.97 -2.65 -42.99 -2.55 -42.99 -2.45 -42.98 -2.35 -42.98 -2.25 -42.97 -2.15 -42.98 -2.05 -42.98 -1.95 -42.98 -1.85 -42.98 -1.75 -42.98 -1.65 -42.98 -1.55 -42.98 -1.45 -42.98 -1.35 -42.98 -1.25 -42.98 -1.15 -44.4 -1.05 -44.4 -0.95 -44.39 -0.85 -44.4 -0.75 -44.4 -0.65 -44.4 -0.55 -44.4 -0.45 -44.4 -0.35 -44.4 -0.25 -44.4 -0.15 -44.4 -0.05 -44.39 0.05 -44.4 0.15 -44.41 0.25 -44.4 0.35 -44.39 0.45 -44.39 0.55 -44.39 0.65 -44.4 0.75 -44.4 0.85 -44.39 0.95 -44.39 1.05 -44.39 1.15 -43.25 1.25 -43.25 1.35 -43.25 1.45 -43.25 1.55 -43.25 1.65 -43.25 1.75 -43.25 1.85 -43.25 1.95 -43.24 2.05 -43.25 2.15 -43.25 2.25 -43.25 2.35 -43.25 2.45 -43.25 2.55 -43.25 2.65 -43.25 2.74 -43.25 2.84 -43.25 2.94 -43.25 3.04 -43.25 3.14 -43.25 3.24 -43.25 3.34 -39.33 3.44 -39.34 3.54 -39.34 3.64 -39.34 3.74 -39.34 3.84 -39.34 3.94 -39.33 4.04 -39.34 4.14 -39.33 4.24 -39.34 4.34 -39.34 4.44 -39.34 4.54 -39.34 4.64 -39.33 4.74 -39.34 4.84 -39.33 4.94 -39.33 5.04 -39.33 5.14 -39.33 5.24 -39.33 5.34 -39.34 5.44 -39.33 5.54 -39.33 5.64 -33.12 5.74 -33.11 5.84 -33.11 5.94 -33.12 6.04 -33.12 6.14 -33.11 6.24 -33.12 6.34 -33.12 6.44 -33.12 6.54 -33.11 6.64 -33.12 6.74 -33.12 6.84 -33.11 6.94 -33.12 7.04 -33.11 7.14 -33.11 7.24 -33.12 7.34 -33.11 7.44 -33.12 7.54 -33.12 7.64 -33.12 7.74 -33.12 7.84 -33.12 7.94 -33.12 8.04 -25.48 8.13 -25.48 8.23 -25.48 8.33 -25.48 8.43 -25.48 8.53 -25.48 8.63 -25.48 8.73 -25.48 8.83 -25.48 8.93 -25.48 9.03 -25.48 9.13 -25.48 9.23 -25.48 9.33 -25.48 9.43 -25.48 9.53 -25.48 9.63 -25.48 9.73 -25.48 9.83 -25.48 9.93 -25.48 10.03 -25.48 10.13 -25.48 10.23 -25.48 10.33 -25.48 10.43 -25.48 10.53 -17.31 10.63 -17.31 10.73 -17.31 10.83 -17.31 10.93 -17.31 11.03 -17.31 11.13 -17.31 11.23 -17.31 11.33 -17.31 11.43 -17.31 11.53 -17.31 11.63 -17.31 11.73 -17.31 11.83 -17.31 11.93 -17.31 12.03 -17.31 12.13 -17.31 12.23 -17.32 12.33 -17.31 12.43 -17.31 12.53 -17.31 12.63 -17.31 12.73 -17.31 12.83 -17.31 12.93 -17.31 13.03 -17.31 13.13 -17.31 13.23 -9.33 13.33 -9.33 13.43 -9.33 13.52 -9.33 13.62 -9.33 13.72 -9.33 13.82 -9.33 13.92 -9.33 14.02 -9.33 14.12 -9.33 14.22 -9.33 14.32 -9.33 14.42 -9.33 14.52 -9.33 14.62 -9.33 14.72 -9.33 14.82 -9.33 14.92 -9.33 15.02 -9.33 15.12 -9.33 15.22 -9.33 15.32 -9.33 15.42 -9.33 15.52 -9.33 15.62 -9.33 15.72 -9.33 15.82 -9.33 15.92 -9.33 16.02 -9.33 16.12 -2.06 16.22 -2.06 16.32 -2.06 16.42 -2.06 16.52 -2.06 16.62 -2.06 16.72 -2.06 16.82 -2.06 16.92 -2.06 17.02 -2.06 17.12 -2.06 17.22 -2.06 17.32 -2.06 17.42 -2.06 17.52 -2.06 17.62 -2.06 17.72 -2.06 17.82 -2.06 17.92 -2.06 18.02 -2.06 18.12 -2.06 18.22 -2.06 18.32 -2.06 18.42 -2.06 18.52 -2.06 18.62 -2.06 18.72 -2.06 18.82 -2.06 18.91 -2.06 19.01 -2.06 19.11 -2.06 19.21 -2.06 19.31 4.19 19.41 4.19 19.51 4.19 19.61 4.19 19.71 4.19 19.81 4.19 19.91 4.19 20.01 4.19 20.11 4.19 20.21 4.19 20.31 4.19 20.41 4.19 20.51 4.19 20.61 4.19 20.71 4.19 20.81 4.19 20.91 4.19 21.01 4.19 21.11 4.19 21.21 4.19 21.31 4.19 21.41 4.19 21.51 4.19 21.61 4.19 21.71 4.19 21.81 4.19 21.91 4.19 22.01 4.19 22.11 4.19 22.21 4.19 22.31 4.19 22.41 4.19 22.51 4.19 22.61 4.19 22.71 4.19 22.81 9.29 22.91 9.29 23.01 9.29 23.11 9.29 23.21 9.29 23.31 9.29 23.41 9.29 23.51 9.29 23.61 9.29 23.71 9.29 23.81 9.29 23.91 9.29 24.01 9.29 24.11 9.29 24.21 9.29 24.3 9.29 24.4 9.29 24.5 9.29 24.6 9.29 24.7 9.29 24.8 9.29 24.9 9.29 25 9.29 25.1 9.29 25.2 9.29 25.3 9.29 25.4 9.29 25.5 9.29 25.6 9.29 25.7 9.29 25.8 9.29 25.9 9.29 26 9.29 26.1 9.29 26.2 9.29 26.3 9.29 26.4 9.29 26.5 9.29 26.6 9.29 26.7 9.29 26.8 13.28 26.9 13.28 27 13.28 27.1 13.28 27.2 13.28 27.3 13.28 27.4 13.28 27.5 13.28 27.6 13.28 27.7 13.28 27.8 13.28 27.9 13.28 28 13.28 28.1 13.28 28.2 13.28 28.3 13.28 28.4 13.28 28.5 13.28 28.6 13.28 28.7 13.28 28.8 13.28 28.9 13.28 29 13.28 29.1 13.28 29.2 13.28 29.3 13.28 29.4 13.28 29.5 13.28 29.6 13.28 29.69 13.28 29.79 13.28 29.89 13.28 29.99 13.28 30.09 13.28 30.19 13.28 30.29 13.28 30.39 13.28 30.49 13.28 30.59 13.28 30.69 13.28 30.79 13.28 30.89 13.28 30.99 13.28 31.09 13.28 31.19 16.28 31.29 16.28 31.39 16.28 31.49 16.28 31.59 16.28 31.69 16.28 31.79 16.28 31.89 16.28 31.99 16.28 32.09 16.28 32.19 16.28 32.29 16.28 32.39 16.28 32.49 16.28 32.59 16.28 32.69 16.28 32.79 16.28 32.89 16.28 32.99 16.28 33.09 16.28 33.19 16.28 33.29 16.28 33.39 16.28 33.49 16.28 33.59 16.28 33.69 16.28 33.79 16.28 33.89 16.28 33.99 16.28 34.09 16.28 34.19 16.28 34.29 16.28 34.39 16.28 34.49 16.28 34.59 16.28 34.69 16.28 34.79 16.28 34.89 16.28 34.99 16.28 35.08 16.28 35.18 16.28 35.28 16.28 35.38 16.28 35.48 16.28 35.58 16.28 35.68 16.28 35.78 16.28 35.88 16.28 35.98 16.28 36.08 16.28 36.18 18.47 36.28 18.47 36.38 18.47 36.48 18.47 36.58 18.47 36.68 18.47 36.78 18.47 36.88 18.47 36.98 18.47 37.08 18.47 37.18 18.47 37.28 18.47 37.38 18.47 37.48 18.47 37.58 18.47 37.68 18.47 37.78 18.47 37.88 18.47 37.98 18.47 38.08 18.47 38.18 18.47 38.28 18.47 38.38 18.47 38.48 18.47 38.58 18.47 38.68 18.47 38.78 18.47 38.88 18.47 38.98 18.47 39.08 18.47 39.18 18.47 39.28 18.47 39.38 18.47 39.48 18.47 39.58 18.47 39.68 18.47 39.78 18.47 39.88 18.47 39.98 18.47 40.08 18.47 40.18 18.47 40.28 18.47 40.38 18.47 40.47 18.47 40.57 18.47 40.67 18.47 40.77 18.47 40.87 18.47 40.97 18.47 41.07 18.47 41.17 18.47 41.27 18.47 41.37 18.47 41.47 18.47 41.57 18.47 41.67 18.47 41.77 18.47 41.87 20.01 41.97 20.01 42.07 20.01 42.17 20.01 42.27 20.01 42.37 20.01 42.47 20.01 42.57 20.01 42.67 20.01 42.77 20.01 42.87 20.01 42.97 20.01 43.07 20.01 43.17 20.01 43.27 20.01 43.37 20.01 43.47 20.01 43.57 20.01 43.67 20.01 43.77 20.01 43.87 20.01 43.97 20.01 44.07 20.01 44.17 20.01 44.27 20.01 44.37 20.01 44.47 20.01 44.57 20.01 44.67 20.01 44.77 20.01 44.87 20.01 44.97 20.01 45.07 20.01 45.17 20.01 45.27 20.01 45.37 20.01 45.47 20.01 45.57 20.01 45.67 20.01 45.77 20.01 45.86 20.01 45.96 20.01 46.06 20.01 46.16 20.01 46.26 20.01 46.36 20.01 46.46 20.01 46.56 20.01 46.66 20.01 46.76 20.01 46.86 20.01 46.96 20.01 47.06 20.01 47.16 20.01 47.26 20.01 47.36 20.01 47.46 20.01 47.56 20.01 47.66 20.01 47.76 20.01 47.86 20.01 47.96 20.01 48.06 20.01 48.16 20.01 48.26 21.07 48.36 21.08 48.46 21.08 48.56 21.07 48.66 21.07 48.76 21.07 48.86 21.07 48.96 21.08 49.06 21.07 49.16 21.07 49.26 21.07 49.36 21.07 49.46 21.07 49.56 21.07 49.66 21.07 49.76 21.07 49.86 21.07" class="primitive"/>
            </g>
          </g>
        </g>
      </g>
    </g>
  </g>
  <g class="guide ylabels" font-size="2.82" font-family="'PT Sans Caption','Helvetica Neue','Helvetica',sans-serif" fill="#6C606B" id="img-98783e4a-24">
    <g transform="translate(17.63,80.32)" id="img-98783e4a-25">
      <g class="primitive">
        <text text-anchor="end" dy="0.35em">0.0</text>
      </g>
    </g>
    <g transform="translate(17.63,55.88)" id="img-98783e4a-26">
      <g class="primitive">
        <text text-anchor="end" dy="0.35em">0.5</text>
      </g>
    </g>
    <g transform="translate(17.63,31.44)" id="img-98783e4a-27">
      <g class="primitive">
        <text text-anchor="end" dy="0.35em">1.0</text>
      </g>
    </g>
    <g transform="translate(17.63,7)" id="img-98783e4a-28">
      <g class="primitive">
        <text text-anchor="end" dy="0.35em">1.5</text>
      </g>
    </g>
  </g>
  <g font-size="3.88" font-family="'PT Sans','Helvetica Neue','Helvetica',sans-serif" fill="#564A55" stroke="#000000" stroke-opacity="0.000" id="img-98783e4a-29">
    <g transform="translate(8.81,41.66)" id="img-98783e4a-30">
      <g class="primitive">
        <text text-anchor="middle" dy="0.35em" transform="rotate(-90,0, 2)">Implied density</text>
      </g>
    </g>
  </g>
</g>
<defs>
  <clipPath id="img-98783e4a-4">
    <path d="M18.63,5 L 147.4 5 147.4 82.32 18.63 82.32" />
  </clipPath>
</defs>
</svg>
